
        <svg xmlns="http://www.w3.org/2000/svg" xmlns:xlink="http://www.w3.org/1999/xlink" version="1.1" width="3187.5" 
        height="1157.2539825376414" viewBox="0 0 3187.5 1157.2539825376414">
			
			<g transform="scale(9.375) translate(10, 10)">
				<defs id="SvgjsDefs1915"><linearGradient id="SvgjsLinearGradient1920"><stop id="SvgjsStop1921" stop-color="#ef4136" offset="0"></stop><stop id="SvgjsStop1922" stop-color="#fbb040" offset="1"></stop></linearGradient><linearGradient id="SvgjsLinearGradient1923"><stop id="SvgjsStop1924" stop-color="#ef4136" offset="0"></stop><stop id="SvgjsStop1925" stop-color="#fbb040" offset="1"></stop></linearGradient></defs><g id="SvgjsG1916" featureKey="symbolFeature-0" transform="matrix(1.0344042480401507,0,0,1.0344042480401507,0,0)" fill="url(#SvgjsLinearGradient1920)"><g xmlns="http://www.w3.org/2000/svg"><g><path d="M26.979,50.023v-0.038h-0.771C11.756,49.985,0,61.349,0,75.316V100h13.938c-1.006-2.063-1.573-4.323-1.573-6.697v-4.421    c-4.02-1.401-6.916-5.218-6.916-9.709c0-5.673,4.615-10.288,10.288-10.288c5.674,0,10.289,4.615,10.289,10.288    c0,4.491-2.897,8.308-6.916,9.709v4.421c0,2.511,1.164,4.851,3.077,6.697h19.971c2.427-2.44,3.931-5.801,3.931-9.508V70.201    C35.456,69.612,26.979,60.801,26.979,50.023z"></path><path d="M71.174,49.985h-1.479v0.038c0,10.005-7.308,18.316-16.861,19.931v20.538c0,3.435-0.866,6.671-2.385,9.508H76.44V79.753    h4.497V100h15.737V75.316C96.675,61.112,85.473,49.985,71.174,49.985z"></path><path d="M62.951,50.023v-0.038H33.724v0.038c0,7.438,6.052,13.489,13.489,13.489h2.249C56.9,63.513,62.951,57.462,62.951,50.023z"></path><path d="M48.48,41.593c11.175,0,20.234-9.059,20.234-20.234c0-0.38,0-0.38,0-0.38c-0.032-0.409-0.046-0.744-0.029-0.744    s0.029-2.023,0.029-4.497V4.496C68.715,2.023,66.691,0,64.218,0H32.742c-2.473,0-4.496,2.023-4.496,4.496v11.241    c0,2.474,0.012,4.497,0.028,4.497s0.003,0.335-0.028,0.744c0,0,0,0,0,0.38C28.246,32.534,37.305,41.593,48.48,41.593z"></path></g></g></g><g id="SvgjsG1917" featureKey="nameFeature-0" transform="matrix(1.1035673805716169,0,0,1.1035673805716169,119.95684980144173,23.024457448347317)" fill="url(#SvgjsLinearGradient1923)"><path d="M16.797 12.050999999999998 l-5.918 10.039 l-5.918 -10.039 l-4.9219 0 l8.7109 14.805 l0 13.145 l4.2578 0 l0 -13.145 l8.7109 -14.805 l-4.9219 0 z M26.875025 18.945 c-1.9531 1.9531 -2.9297 4.31 -2.9297 7.0703 s0.97656 5.1172 2.9297 7.0703 s4.31 2.9297 7.0703 2.9297 s5.1172 -0.97656 7.0703 -2.9297 s2.9297 -4.31 2.9297 -7.0703 s-0.97656 -5.1172 -2.9297 -7.0703 s-4.31 -2.9297 -7.0703 -2.9297 s-5.1172 0.97656 -7.0703 2.9297 z M23.867225 36.0937 c-2.7865 -2.7865 -4.1797 -6.1459 -4.1797 -10.078 s1.3932 -7.2916 4.1797 -10.078 s6.1459 -4.1797 10.078 -4.1797 s7.2916 1.3932 10.078 4.1797 s4.1797 6.1459 4.1797 10.078 s-1.3932 7.2916 -4.1797 10.078 s-6.1459 4.1797 -10.078 4.1797 s-7.2916 -1.3932 -10.078 -4.1797 z M54.609425 37.3437 c-1.9401 -1.9401 -2.9102 -4.2838 -2.9102 -7.0313 l0 -18.281 l4.2578 0 l0 18.281 c0 1.5755 0.55338 2.9166 1.6602 4.0234 c1.1198 1.1198 2.4609 1.6797 4.0234 1.6797 c1.5755 0 2.9166 -0.5599 4.0234 -1.6797 c1.1198 -1.1068 1.6797 -2.4479 1.6797 -4.0234 l0 -18.281 l4.2578 0 l0 18.281 c0 2.7475 -0.97656 5.0912 -2.9297 7.0313 c-1.9401 1.9401 -4.2838 2.9102 -7.0313 2.9102 c-2.7344 0 -5.0781 -0.97006 -7.0313 -2.9102 z M80.41016875 23.984 l0 -7.6953 l6.0742 0 c1.0547 0 1.9596 0.3776 2.7148 1.1328 c0.74219 0.75521 1.1133 1.6667 1.1133 2.7344 c0 1.0547 -0.37109 1.9531 -1.1133 2.6953 c-0.75521 0.75521 -1.6602 1.1328 -2.7148 1.1328 l-6.0742 0 z M89.64796875 27.578 c1.4583 -0.625 2.6367 -1.6015 3.5352 -2.9297 c0.92447 -1.3542 1.3867 -2.8516 1.3867 -4.4922 c0 -2.2396 -0.79428 -4.1471 -2.3828 -5.7227 c-1.5755 -1.5885 -3.4766 -2.3828 -5.7031 -2.3828 l-10.313 0 l0 27.949 l4.2383 0 l0 -11.777 l4.7852 0 l6.1133 11.777 l4.7852 0 z M112.55861875 35.7812 l3.125 -0.000019073 c2.6822 0 4.9805 -0.95703 6.8945 -2.8711 c1.901 -1.901 2.8516 -4.1928 2.8516 -6.875 c0 -2.6953 -0.95053 -4.9936 -2.8516 -6.8945 c-1.9141 -1.9141 -4.2123 -2.8711 -6.8945 -2.8711 l-3.125 0 l0 19.512 z M108.33981875 39.999980927 l0 -27.949 l7.3438 0 c3.8541 0 7.1484 1.3672 9.8828 4.1016 c2.7213 2.7344 4.082 6.0287 4.082 9.8828 c0 3.8412 -1.3607 7.1289 -4.082 9.8633 c-2.7344 2.7344 -6.0287 4.1016 -9.8828 4.1016 l-7.3438 0 z M138.88674375 18.945 c-1.9531 1.9531 -2.9297 4.31 -2.9297 7.0703 s0.97656 5.1172 2.9297 7.0703 s4.31 2.9297 7.0703 2.9297 s5.1172 -0.97656 7.0703 -2.9297 s2.9297 -4.31 2.9297 -7.0703 s-0.97656 -5.1172 -2.9297 -7.0703 s-4.31 -2.9297 -7.0703 -2.9297 s-5.1172 0.97656 -7.0703 2.9297 z M135.87894375 36.0937 c-2.7865 -2.7865 -4.1797 -6.1459 -4.1797 -10.078 s1.3932 -7.2916 4.1797 -10.078 s6.1459 -4.1797 10.078 -4.1797 s7.2916 1.3932 10.078 4.1797 s4.1797 6.1459 4.1797 10.078 s-1.3932 7.2916 -4.1797 10.078 s-6.1459 4.1797 -10.078 4.1797 s-7.2916 -1.3932 -10.078 -4.1797 z M169.45314375 33.0859 c-1.9531 -1.9531 -2.9297 -4.31 -2.9297 -7.0703 s0.97656 -5.1172 2.9297 -7.0703 c1.9531 -1.9662 4.31 -2.9492 7.0703 -2.9492 c1.6927 0 3.2748 0.40365 4.7461 1.2109 l0 -4.6484 c-1.5365 -0.53385 -3.1186 -0.80078 -4.7461 -0.80078 c-3.9322 0 -7.2916 1.3932 -10.078 4.1797 s-4.1797 6.1459 -4.1797 10.078 s1.3932 7.2916 4.1797 10.078 s6.1459 4.1797 10.078 4.1797 c1.6276 0 3.2096 -0.27344 4.7461 -0.82031 l0 -4.6289 c-1.4713 0.79428 -3.0533 1.1914 -4.7461 1.1914 c-2.7604 0 -5.1172 -0.97656 -7.0703 -2.9297 z"></path></g>
			</g>
		</svg>
	